<svg xmlns="http://www.w3.org/2000/svg" xmlns:xlink="http://www.w3.org/1999/xlink" viewBox="0,0,256,256" width="40px" height="40px"><defs><linearGradient x1="32" y1="9.083" x2="32" y2="54.676" gradientUnits="userSpaceOnUse" id="color-1"><stop offset="0" stop-color="#0ea5ea"></stop><stop offset="1" stop-color="#0ea5ea"></stop></linearGradient><linearGradient x1="32" y1="19" x2="32" y2="45" gradientUnits="userSpaceOnUse" id="color-2"><stop offset="0" stop-color="#6dc7ff"></stop><stop offset="1" stop-color="#0ea5ea"></stop></linearGradient></defs><g fill="none" fill-rule="nonzero" stroke="none" stroke-width="1" stroke-linecap="butt" stroke-linejoin="miter" stroke-miterlimit="10" stroke-dasharray="" stroke-dashoffset="0" font-family="none" font-weight="none" font-size="none" text-anchor="none" style="mix-blend-mode: normal"><g transform="scale(4,4)"><path d="M50,55h-36c-2.757,0 -5,-2.243 -5,-5v-36c0,-2.757 2.243,-5 5,-5h36c2.757,0 5,2.243 5,5v36c0,2.757 -2.243,5 -5,5zM14,11c-1.654,0 -3,1.346 -3,3v36c0,1.654 1.346,3 3,3h36c1.654,0 3,-1.346 3,-3v-36c0,-1.654 -1.346,-3 -3,-3z" fill="url(#color-1)"></path><path d="M43,29h-1c-1.11,0 -2,-0.9 -2,-2c0,-4.4 -3.6,-8 -8,-8h-5c-4.4,0 -8,3.6 -8,8v10c0,4.4 3.6,8 8,8h10c4.4,0 8,-3.6 8,-8v-6c0,-1.1 -0.9,-2 -2,-2zM27,25h5c1.1,0 2,0.9 2,2c0,1.1 -0.9,2 -2,2h-5c-1.1,0 -2,-0.9 -2,-2c0,-1.1 0.9,-2 2,-2zM37,39h-10c-1.1,0 -2,-0.9 -2,-2c0,-1.1 0.9,-2 2,-2h10c1.1,0 2,0.9 2,2c0,1.1 -0.9,2 -2,2z" fill="url(#color-2)"></path></g></g></svg>